# xmcd
#
# Track frame offsets: 
#        150
#        32290
#        93307
#        129692
#        152727
#        217715
#        246553
#
# Disc length: 3735 seconds
#
# Revision: 0
# Processed by: cddbd v1.5.2PL0 Copyright (c) Steve Scherf et al.
# Submitted via: ExactAudioCopy v0.95b4
#
DISCID=530e9507
DTITLE=Eric Clapton - Live In Great Smoke - CD2
DYEAR=1977
DGENRE=Blues
TTITLE0=Further On Up The Road
TTITLE1=Stormy Monday
TTITLE2=Badge
TTITLE3=Nobody Knows You When You're Down And Out
TTITLE4=I Shot The Sheriff
TTITLE5=Layla
TTITLE6=Key To The Highway
EXTD=
EXTT0=
EXTT1=
EXTT2=
EXTT3=
EXTT4=
EXTT5=
EXTT6=
PLAYORDER=
